<?xml version="1.0" encoding="utf-8"?>
<!-- Generator: Adobe Illustrator 24.0.1, SVG Export Plug-In . SVG Version: 6.00 Build 0)  -->
<svg version="1.1" id="Layer_1_copy" xmlns="http://www.w3.org/2000/svg" xmlns:xlink="http://www.w3.org/1999/xlink" x="0px"
	 y="0px" viewBox="0 0 120 80" style="enable-background:new 0 0 120 80;" xml:space="preserve">
<style type="text/css">
	.st0{fill:#FFFFFF;}
	.st1{stroke:#FFFFFF;stroke-width:0.1;stroke-linecap:square;stroke-miterlimit:2;}
	.st2{fill:#231F20;}
	.st3{fill:#1D1D1B;}
	.st4{font-family:'GeometosNeueBold';}
	.st5{font-size:12.6718px;}
</style>
<g>
	<polygon class="st3" points="76.3,39 38.3,39 38.3,1 76.3,1 76.3,39 	"/>
	<path class="st0" d="M40.3,36.9h33.9V3.1H40.3V36.9L40.3,36.9z M74.6,37.3H40V2.7h34.7V37.3L74.6,37.3z"/>
	<polygon class="st0" points="61.9,13.9 64.6,12.2 67.3,13.9 66.4,10.9 68.9,8.9 65.7,8.8 64.6,5.8 63.5,8.8 60.3,8.9 62.8,10.9 
		61.9,13.9 	"/>
	<path class="st0" d="M66.7,25.3c-0.4-0.6-1-1.1-1.7-1.4c0.5-0.3,0.9-0.8,1.2-1.3c0.5-0.8,0.7-1.6,0.7-2.5c0-0.6-0.1-1.1-0.3-1.7
		c-0.2-0.6-0.5-1.1-0.8-1.5c-0.4-0.4-0.8-0.8-1.3-1.1c-0.5-0.3-1.1-0.4-1.8-0.4h-8.8v7.9c-0.9,0-1.7-0.1-2.4-0.5
		c-0.4-0.2-0.7-0.4-1-0.7c-0.2-0.2-0.5-0.4-0.7-0.7c-0.5-0.6-0.9-1.2-1.1-2c-0.3-0.7-0.4-1.6-0.4-2.4c0-0.7,0.1-1.5,0.3-2.2
		c0.2-0.7,0.6-1.4,1-2c0.5-0.6,1-1.1,1.7-1.4c1-0.5,2.2-0.7,3.5-0.4c0.4,0.1,0.8,0.2,1.2,0.4c0.4,0.2,0.7,0.5,1.1,0.8
		c0.3,0.3,0.6,0.7,0.8,1.2l0.2,0.4l2.4-1.5l-0.2-0.3c-0.6-1.2-1.4-2.1-2.5-2.8c-1.1-0.7-2.5-1.1-4.1-1.1c-1.3,0-2.5,0.3-3.6,0.8
		c-1,0.5-1.9,1.2-2.6,2c-0.7,0.8-1.3,1.8-1.6,2.8c-0.4,1-0.6,2.1-0.6,3.2c0,1.1,0.2,2.2,0.6,3.3c0.4,1.1,1,2,1.7,2.9
		c0.7,0.8,1.6,1.5,2.6,2.1c0.1,0,0.2,0.1,0.3,0.1c0.1,0,0.1,0.1,0.2,0.1c0.2,0.1,0.4,0.1,0.5,0.2c0.1,0,0.2,0.1,0.4,0.1
		c0.2,0.1,0.4,0.1,0.6,0.1c0.1,0,0.3,0,0.4,0.1c0.3,0,0.7,0.1,1,0.1c0.1,0,0.2,0,0.4,0c0.6,0,1.1-0.1,1.7-0.3c0.7-0.2,1.4-0.4,2-0.8
		c0.2-0.1,0.5-0.3,0.7-0.4c0.1-0.1,0.3-0.2,0.4-0.3c0.2-0.2,0.4-0.3,0.6-0.5c0.1-0.1,0.3-0.3,0.4-0.4c0.1-0.1,0.2-0.3,0.3-0.4
		c0.2-0.3,0.4-0.6,0.5-1l0.1-0.3l-0.3-0.2l0,0l-1.8-1.7c0,0-0.2,0.4-0.3,0.6c-0.1,0.2-0.3,0.5-0.5,0.7c-0.2,0.3-0.4,0.5-0.6,0.7
		c-0.1,0.1-0.3,0.2-0.4,0.4V18h5.1c0.3,0,0.6,0.1,0.8,0.2c0.3,0.1,0.5,0.3,0.6,0.5c0.2,0.2,0.3,0.5,0.4,0.8c0.1,0.3,0.2,0.6,0.2,1
		c0,0.3-0.1,0.6-0.2,0.9c-0.1,0.3-0.3,0.6-0.5,0.8c-0.2,0.2-0.4,0.4-0.7,0.5c-0.3,0.1-0.6,0.2-0.9,0.2H61c-0.1,0.2-0.2,0.3-0.3,0.5
		c-0.2,0.3-0.5,0.7-0.8,1c-0.4,0.4-0.8,0.7-1.3,1c-0.1,0.1,0,0.1,0,0.1h0.2h3.5c0.3,0,0.6,0.1,0.9,0.2c0.3,0.1,0.5,0.3,0.7,0.5
		c0.2,0.2,0.4,0.5,0.5,0.8c0.1,0.3,0.2,0.6,0.2,1c0,0.3-0.1,0.6-0.2,0.9c-0.1,0.3-0.3,0.6-0.5,0.8c-0.2,0.2-0.5,0.4-0.8,0.5
		c-0.3,0.1-0.6,0.2-0.9,0.2h-5.4v-4.1c-0.3,0.1-0.7,0.2-1,0.3c-0.6,0.2-1.2,0.2-1.9,0.3c0,0,0,0,0,0V33h8.4c0.7,0,1.4-0.1,2-0.3
		c0.6-0.2,1.2-0.5,1.7-0.9c0.5-0.4,0.9-0.9,1.2-1.5c0.3-0.6,0.4-1.2,0.4-2C67.6,27.2,67.3,26.2,66.7,25.3"/>
	<path class="st0" d="M40.3,37h33.9V3.1H40.3V37L40.3,37z M74.6,37.3H40V2.7h34.7V37.3L74.6,37.3z"/>
	<polygon class="st0" points="61.9,13.9 64.6,12.2 67.3,13.9 66.4,10.9 68.9,8.9 65.7,8.8 64.6,5.8 63.5,8.8 60.3,8.9 62.8,10.9 
		61.9,13.9 	"/>
	<path class="st0" d="M66.7,25.3c-0.4-0.6-1-1.1-1.7-1.4c0.5-0.3,0.9-0.8,1.2-1.3c0.5-0.8,0.7-1.6,0.7-2.5c0-0.6-0.1-1.1-0.3-1.7
		c-0.2-0.6-0.5-1.1-0.8-1.5c-0.4-0.4-0.8-0.8-1.3-1.1c-0.5-0.3-1.1-0.4-1.8-0.4h-8.8v7.9c-0.9,0-1.7-0.1-2.4-0.5
		c-0.4-0.2-0.7-0.4-1-0.7c-0.2-0.2-0.5-0.4-0.7-0.7c-0.5-0.6-0.9-1.2-1.1-2c-0.3-0.7-0.4-1.6-0.4-2.4c0-0.7,0.1-1.5,0.3-2.2
		c0.2-0.7,0.6-1.4,1-2c0.5-0.6,1-1.1,1.7-1.4c1-0.5,2.2-0.7,3.5-0.4c0.4,0.1,0.8,0.2,1.2,0.4c0.4,0.2,0.7,0.5,1.1,0.8
		c0.3,0.3,0.6,0.7,0.8,1.2l0.2,0.4l2.4-1.5l-0.2-0.3c-0.6-1.2-1.4-2.1-2.5-2.8c-1.1-0.7-2.5-1.1-4.1-1.1c-1.3,0-2.5,0.3-3.6,0.8
		c-1,0.5-1.9,1.2-2.6,2c-0.7,0.8-1.3,1.8-1.6,2.8c-0.4,1-0.6,2.1-0.6,3.2c0,1.1,0.2,2.2,0.6,3.3c0.4,1.1,1,2,1.7,2.9
		c0.7,0.8,1.6,1.5,2.6,2.1c0.1,0,0.2,0.1,0.3,0.1c0.1,0,0.1,0.1,0.2,0.1c0.2,0.1,0.4,0.1,0.5,0.2c0.1,0,0.2,0.1,0.4,0.1
		c0.2,0.1,0.4,0.1,0.6,0.1c0.1,0,0.3,0,0.4,0.1c0.3,0,0.7,0.1,1,0.1c0.1,0,0.2,0,0.4,0c0.6,0,1.1-0.1,1.7-0.3c0.7-0.2,1.4-0.4,2-0.8
		c0.2-0.1,0.5-0.3,0.7-0.4c0.1-0.1,0.3-0.2,0.4-0.3c0.2-0.2,0.4-0.3,0.6-0.5c0.1-0.1,0.3-0.3,0.4-0.4c0.1-0.1,0.2-0.3,0.3-0.4
		c0.2-0.3,0.4-0.6,0.5-1l0.1-0.3l-0.3-0.2l0,0l-1.8-1.7c0,0-0.2,0.4-0.3,0.6c-0.1,0.2-0.3,0.5-0.5,0.7c-0.2,0.3-0.4,0.5-0.6,0.7
		c-0.1,0.1-0.3,0.2-0.4,0.4v-4.1h5.1c0.3,0,0.6,0.1,0.8,0.2c0.3,0.1,0.5,0.3,0.6,0.5c0.2,0.2,0.3,0.5,0.4,0.8c0.1,0.3,0.2,0.6,0.2,1
		c0,0.3-0.1,0.6-0.2,0.9c-0.1,0.3-0.3,0.6-0.5,0.8c-0.2,0.2-0.4,0.4-0.7,0.5c-0.3,0.1-0.6,0.2-0.9,0.2H61c-0.1,0.2-0.2,0.3-0.3,0.5
		c-0.2,0.3-0.5,0.7-0.8,1c-0.4,0.4-0.8,0.7-1.3,1c-0.1,0,0,0.1,0,0.1h0.2h3.5c0.3,0,0.6,0.1,0.9,0.2c0.3,0.1,0.5,0.3,0.7,0.5
		c0.2,0.2,0.4,0.5,0.5,0.8c0.1,0.3,0.2,0.6,0.2,1c0,0.3-0.1,0.6-0.2,0.9c-0.1,0.3-0.3,0.6-0.5,0.8c-0.2,0.2-0.5,0.4-0.8,0.5
		c-0.3,0.1-0.6,0.2-0.9,0.2h-5.4v-4.1c-0.3,0.1-0.7,0.2-1,0.3c-0.6,0.2-1.2,0.2-1.9,0.3c0,0,0,0,0,0V33h8.4c0.7,0,1.4-0.1,2-0.3
		c0.6-0.2,1.2-0.5,1.7-0.9c0.5-0.4,0.9-0.9,1.2-1.5c0.3-0.6,0.4-1.2,0.4-2C67.6,27.2,67.3,26.2,66.7,25.3"/>
	<polygon class="st3" points="76.3,66.6 38.3,66.6 38.3,66.3 76.3,66.3 76.3,66.6 	"/>
	<polygon class="st3" points="45.1,43.9 43.4,43.9 43.4,52.1 49.4,52.1 49.4,50.6 45.1,50.6 45.1,43.9 	"/>
	<polygon class="st3" points="65,48.2 63.1,44 62.9,44 60.9,48.2 59.4,44 57.6,44 60.6,52.1 60.6,52.1 60.8,52.1 63,47.6 65.1,52.1 
		65.4,52.1 68.4,44 66.6,44 65,48.2 	"/>
	<polygon class="st3" points="69.2,52.1 75.2,52.1 75.2,50.6 70.9,50.6 70.9,48.9 74.7,48.9 74.7,47.3 70.9,47.3 70.9,45.5 
		75.2,45.5 75.2,43.9 69.2,43.9 69.2,52.1 	"/>
	<polygon class="st3" points="78.3,43.9 76.6,43.9 76.6,52.1 82.5,52.1 82.5,50.6 78.3,50.6 78.3,43.9 	"/>
	<polygon class="st3" points="85,43.9 83.3,43.9 83.3,52.1 89.3,52.1 89.3,50.6 85,50.6 85,43.9 	"/>
	<path class="st3" d="M38.1,57c0,0.1,0,0.2-0.1,0.3c0,0.1-0.1,0.2-0.2,0.3c-0.1,0.1-0.2,0.2-0.3,0.2c-0.1,0.1-0.2,0.1-0.4,0.1h-1.8
		v-1.7h1.9c0.1,0,0.2,0,0.3,0.1c0.1,0,0.2,0.1,0.2,0.2c0.1,0.1,0.1,0.2,0.2,0.3C38.1,56.8,38.1,56.9,38.1,57 M38.5,60.3
		c0,0.1,0,0.2-0.1,0.4c0,0.1-0.1,0.2-0.2,0.3c-0.1,0.1-0.2,0.2-0.3,0.2c-0.1,0.1-0.2,0.1-0.3,0.1h-2.1v-1.9h1.9
		c0.3,0,0.6,0.1,0.8,0.3C38.4,59.9,38.5,60.1,38.5,60.3 M39.6,59.1c-0.2-0.2-0.3-0.3-0.5-0.4c-0.1,0-0.2-0.1-0.2-0.1
		c0.1,0,0.1-0.1,0.2-0.1c0.2-0.1,0.3-0.2,0.4-0.4c0.1-0.2,0.2-0.3,0.3-0.5c0.1-0.2,0.1-0.4,0.1-0.5c0-0.5-0.1-0.8-0.2-1.1
		c-0.1-0.3-0.3-0.5-0.5-0.7c-0.2-0.2-0.5-0.3-0.8-0.4c-0.3-0.1-0.6-0.1-0.9-0.1h-3.6v8.2h3.8c0.3,0,0.7,0,1-0.1
		c0.3-0.1,0.6-0.2,0.8-0.4c0.2-0.2,0.4-0.4,0.6-0.8c0.1-0.3,0.2-0.7,0.2-1.1c0-0.3-0.1-0.5-0.2-0.7C39.9,59.4,39.8,59.2,39.6,59.1"
		/>
	<path class="st3" d="M45.6,60.1h-2l1-2.1L45.6,60.1L45.6,60.1z M44.5,54.7l-4.2,8.2h1.9l0.6-1.3h3.7l0.6,1.3h1.9l-4.2-8.2H44.5
		L44.5,54.7z"/>
	<polygon class="st3" points="55.1,59.4 50,54.7 49.9,54.7 49.7,54.7 49.7,62.8 51.4,62.8 51.4,58.2 56.5,62.8 56.8,62.8 56.8,54.7 
		55.1,54.7 55.1,59.4 	"/>
	<polygon class="st3" points="65.3,54.7 63.2,54.7 60.1,58.6 60.1,54.7 58.4,54.7 58.4,62.9 60.1,62.9 60.1,59.3 63.4,62.9 
		65.6,62.9 61.9,58.9 65.3,54.7 	"/>
	<polygon class="st3" points="66.4,62.9 72.4,62.9 72.4,61.3 68.1,61.3 68.1,59.6 71.9,59.6 71.9,58 68.1,58 68.1,56.2 72.4,56.2 
		72.4,54.7 66.4,54.7 66.4,62.9 	"/>
	<path class="st3" d="M78.3,58.5c-0.1,0.1-0.2,0.2-0.4,0.2c-0.1,0.1-0.3,0.1-0.4,0.1h-2v-2.6h2c0.3,0,0.5,0,0.6,0.1
		c0.1,0.1,0.3,0.2,0.3,0.3c0.1,0.1,0.1,0.3,0.2,0.4c0,0.2,0,0.3,0,0.4c0,0.2,0,0.4-0.1,0.6C78.5,58.2,78.4,58.4,78.3,58.5
		 M75.5,60.3h1.4c0.3,0.4,0.6,0.9,0.9,1.3c0.3,0.4,0.6,0.8,0.9,1.3l0,0h2l-0.1-0.1c-0.6-0.9-1.3-1.8-1.9-2.6c0.5-0.2,0.9-0.5,1.2-1
		c0.3-0.5,0.5-1,0.5-1.6c0-0.4-0.1-0.8-0.2-1.1c-0.1-0.3-0.3-0.7-0.6-0.9c-0.2-0.3-0.6-0.5-0.9-0.6c-0.3-0.1-0.7-0.2-1.2-0.2h-3.7
		v8.2h1.7V60.3L75.5,60.3z"/>
	<path class="st3" d="M32.6,45.1c-0.3-0.3-0.6-0.5-0.9-0.7c-0.3-0.2-0.7-0.3-1-0.4c-0.4-0.1-0.8-0.2-1.1-0.2c-0.6,0-1.1,0.1-1.6,0.3
		c-0.5,0.2-1,0.5-1.3,0.9c-0.4,0.4-0.7,0.8-0.9,1.3c-0.2,0.5-0.3,1.1-0.3,1.6c0,0.6,0.1,1.1,0.3,1.6c0.2,0.5,0.5,1,0.9,1.3
		c0.4,0.4,0.8,0.7,1.3,0.9c0.5,0.2,1.1,0.3,1.6,0.3c0.4,0,0.8-0.1,1.1-0.2c0.4-0.1,0.7-0.3,1-0.4c0.3-0.2,0.6-0.4,0.9-0.7
		c0.3-0.3,0.5-0.6,0.7-0.9l0-0.1l-1.6-0.6l0,0.1c-0.1,0.2-0.2,0.3-0.4,0.5c-0.2,0.2-0.3,0.3-0.5,0.4c-0.2,0.1-0.4,0.2-0.6,0.3
		c-0.2,0.1-0.4,0.1-0.6,0.1c-0.4,0-0.7-0.1-1-0.2c-0.3-0.1-0.6-0.3-0.8-0.6c-0.2-0.2-0.4-0.5-0.5-0.8c-0.1-0.3-0.2-0.7-0.2-1
		c0-0.3,0.1-0.7,0.2-1c0.1-0.3,0.3-0.6,0.5-0.8c0.2-0.2,0.5-0.4,0.8-0.6c0.3-0.1,0.6-0.2,1-0.2c0.2,0,0.4,0,0.6,0.1
		c0.2,0.1,0.4,0.2,0.6,0.3c0.2,0.1,0.4,0.2,0.5,0.4c0.2,0.1,0.3,0.3,0.4,0.5l0,0.1l1.6-0.6l0-0.1C33.1,45.6,32.9,45.4,32.6,45.1"/>
	<path class="st3" d="M40.5,48c0,0.4-0.1,0.7-0.2,1c-0.1,0.3-0.3,0.6-0.5,0.8c-0.2,0.2-0.5,0.4-0.8,0.6c-0.3,0.1-0.6,0.2-1,0.2
		c-0.4,0-0.7-0.1-1-0.2c-0.3-0.1-0.6-0.3-0.8-0.6c-0.2-0.2-0.4-0.5-0.5-0.8c-0.1-0.3-0.2-0.7-0.2-1c0-0.3,0.1-0.7,0.2-1
		c0.1-0.3,0.3-0.6,0.5-0.8c0.2-0.2,0.5-0.4,0.8-0.6c0.3-0.1,0.6-0.2,1-0.2c0.4,0,0.7,0.1,1,0.2c0.3,0.1,0.6,0.3,0.8,0.6
		c0.2,0.2,0.4,0.5,0.5,0.8C40.5,47.4,40.5,47.7,40.5,48 M41,45c-0.4-0.4-0.8-0.7-1.3-0.9c-0.5-0.2-1.1-0.3-1.7-0.3
		c-0.6,0-1.1,0.1-1.6,0.3c-0.5,0.2-1,0.5-1.3,0.9c-0.4,0.4-0.7,0.8-0.9,1.4c-0.2,0.5-0.3,1.1-0.3,1.7c0,0.6,0.1,1.1,0.3,1.7
		c0.2,0.5,0.5,1,0.9,1.3c0.4,0.4,0.8,0.7,1.3,0.9c0.5,0.2,1.1,0.3,1.6,0.3c0.6,0,1.1-0.1,1.7-0.3c0.5-0.2,1-0.5,1.3-0.9
		c0.4-0.4,0.7-0.8,0.9-1.3c0.2-0.5,0.3-1.1,0.3-1.7c0-0.6-0.1-1.1-0.3-1.7C41.7,45.9,41.4,45.4,41,45"/>
	<path class="st3" d="M55.8,48c0,0.5-0.1,1-0.2,1.3c-0.1,0.3-0.3,0.6-0.6,0.8c-0.2,0.2-0.5,0.3-0.8,0.4c-0.3,0.1-0.6,0.1-0.8,0.1
		h-1.5v-5.1h1.5c0.3,0,0.6,0,0.8,0.1c0.3,0.1,0.5,0.2,0.8,0.4c0.2,0.2,0.4,0.4,0.6,0.8C55.7,47.1,55.8,47.5,55.8,48 M56.3,45
		c-0.7-0.7-1.7-1-2.9-1h-3.2v8.2h3.2c0.6,0,1.1-0.1,1.6-0.3c0.5-0.2,0.9-0.4,1.3-0.8c0.4-0.4,0.7-0.8,0.9-1.3
		c0.2-0.5,0.3-1.1,0.3-1.7c0-0.6-0.1-1.2-0.3-1.7C57,45.8,56.7,45.3,56.3,45"/>
	<path class="st3" d="M44.1,70.8L40.5,75l-3.6-4.2h-0.1V78h1.4v-3.7l2.3,2.7l2.3-2.7V78h1.4L44.1,70.8L44.1,70.8L44.1,70.8z
		 M51.3,72v-1.2H46V78h5.4v-1.2h-4V75h3.5v-1.2h-3.5V72H51.3L51.3,72z M52.4,78h1.7l1.8-2.5l1.8,2.5h1.7l-2.7-3.6l2.8-3.7h-1.7
		L56,73.4l-1.9-2.6h-1.7l2.8,3.7L52.4,78L52.4,78z M62.1,70.8h-1.4V78h1.4V70.8L62.1,70.8z M69.3,73.1l1.3-0.5
		c-0.5-1-1.7-1.9-3.3-1.9c-2.1,0-3.8,1.7-3.8,3.8c0,2.1,1.7,3.8,3.8,3.8c1.6,0,2.8-0.8,3.3-1.9l-1.3-0.5c-0.4,0.6-1,1.2-2,1.2
		c-1.3,0-2.4-1.1-2.4-2.5c0-1.4,1.1-2.5,2.4-2.5C68.3,71.9,69,72.4,69.3,73.1L69.3,73.1z M75.2,78.2c2.3,0,3.8-1.7,3.8-3.8
		c0-2.1-1.5-3.8-3.8-3.8c-2.3,0-3.8,1.7-3.8,3.8C71.4,76.5,72.9,78.2,75.2,78.2L75.2,78.2z M75.2,71.9c1.3,0,2.4,1.2,2.4,2.5
		c0,1.3-1.1,2.5-2.4,2.5c-1.3,0-2.4-1.2-2.4-2.5C72.8,73.1,73.9,71.9,75.2,71.9L75.2,71.9z"/>
</g>
<text transform="matrix(1 0 0 1 47.0396 80.0479)" class="st4 st5">´</text>
</svg>
